<svg xmlns="http://www.w3.org/2000/svg" width="304" height="81.105" viewBox="0 0 304 81.105">
  <g id="Grupo_82" data-name="Grupo 82" transform="translate(-57.858 -24.116)">
    <path id="Trazado_444" data-name="Trazado 444" d="M82.012,58.269H71.529V71.89q0,1.339.078,2.472a4.11,4.11,0,0,0,.607,1.98,3.6,3.6,0,0,0,1.594,1.341,7.436,7.436,0,0,0,3.038.494,15.748,15.748,0,0,0,2.66-.234,13.211,13.211,0,0,0,2.582-.7l.229,4.133a16.826,16.826,0,0,1-3.383.757,28.3,28.3,0,0,1-3.53.234,16.393,16.393,0,0,1-5.091-.642,6.886,6.886,0,0,1-2.961-1.8,5.9,5.9,0,0,1-1.405-2.883,19.522,19.522,0,0,1-.338-3.812V58.269H57.858V54.427h7.749V46.686h5.921v7.741H82.012Z" transform="translate(0 -2.097)" fill="#fff"/>
    <path id="Trazado_445" data-name="Trazado 445" d="M112.275,66.326a7.028,7.028,0,0,0-2.961-5.589q-2.812-2.1-7.748-2.1a13.768,13.768,0,0,0-7.974,2.1,8.3,8.3,0,0,0-3.646,5.589Zm5.091,11.117a17.941,17.941,0,0,1-6.988,4.4,28.231,28.231,0,0,1-8.812,1.252,23.291,23.291,0,0,1-7.521-1.137,17.731,17.731,0,0,1-5.66-3.055,13.33,13.33,0,0,1-3.568-4.54,12.754,12.754,0,0,1-1.255-5.589,12.427,12.427,0,0,1,1.37-5.793,13.618,13.618,0,0,1,3.8-4.541A18.074,18.074,0,0,1,94.5,55.5a24.179,24.179,0,0,1,7.292-1.05,23.05,23.05,0,0,1,6.835.962,15.594,15.594,0,0,1,5.355,2.795,12.357,12.357,0,0,1,3.458,4.481,14.311,14.311,0,0,1,1.217,6.024v1.453H89.945a7.739,7.739,0,0,0,1.1,3.348,10,10,0,0,0,2.469,2.8,11.886,11.886,0,0,0,3.57,1.891,13.808,13.808,0,0,0,4.479.7,17.956,17.956,0,0,0,6.534-1.048,14.666,14.666,0,0,0,4.786-3.087Z" transform="translate(-2.388 -2.818)" fill="#fff"/>
    <rect id="Rectángulo_1" data-name="Rectángulo 1" width="5.924" height="44.006" transform="translate(119.916 35.565)" fill="#fff"/>
    <path id="Trazado_446" data-name="Trazado 446" d="M165.536,66.326a7.028,7.028,0,0,0-2.963-5.589q-2.8-2.1-7.748-2.1a13.778,13.778,0,0,0-7.974,2.1,8.3,8.3,0,0,0-3.646,5.589Zm5.089,11.117a17.932,17.932,0,0,1-6.985,4.4,28.252,28.252,0,0,1-8.815,1.252,23.291,23.291,0,0,1-7.521-1.137,17.73,17.73,0,0,1-5.658-3.055,13.313,13.313,0,0,1-3.57-4.54,12.828,12.828,0,0,1-1.252-5.589,12.458,12.458,0,0,1,1.367-5.793,13.6,13.6,0,0,1,3.8-4.541,18.079,18.079,0,0,1,5.771-2.936,24.192,24.192,0,0,1,7.292-1.05,23.06,23.06,0,0,1,6.838.962,15.633,15.633,0,0,1,5.357,2.795,12.41,12.41,0,0,1,3.455,4.481,14.324,14.324,0,0,1,1.215,6.024v1.453H143.2a7.775,7.775,0,0,0,1.1,3.348,10.046,10.046,0,0,0,2.469,2.8,11.941,11.941,0,0,0,3.57,1.891,13.808,13.808,0,0,0,4.479.7,17.946,17.946,0,0,0,6.534-1.048,14.624,14.624,0,0,0,4.785-3.087Z" transform="translate(-7.337 -2.818)" fill="#fff"/>
    <path id="Trazado_447" data-name="Trazado 447" d="M183.065,68.77a9.046,9.046,0,0,0,3.418,7.19,12.625,12.625,0,0,0,3.989,2.152,17.585,17.585,0,0,0,10.406,0,12.64,12.64,0,0,0,3.987-2.152,9.209,9.209,0,0,0,0-14.38,12.658,12.658,0,0,0-3.987-2.152,17.585,17.585,0,0,0-10.406,0,12.643,12.643,0,0,0-3.989,2.152,9.238,9.238,0,0,0-2.544,3.2,9.142,9.142,0,0,0-.874,3.988m-6.379,0a11.845,11.845,0,0,1,1.443-5.823,14.243,14.243,0,0,1,3.947-4.511,18.842,18.842,0,0,1,6-2.936,27.973,27.973,0,0,1,15.194,0,18.827,18.827,0,0,1,6,2.936,14.227,14.227,0,0,1,3.952,4.511,12.488,12.488,0,0,1,0,11.642,14.207,14.207,0,0,1-3.952,4.514,18.828,18.828,0,0,1-6,2.937,28,28,0,0,1-15.194,0,18.843,18.843,0,0,1-6-2.937,14.223,14.223,0,0,1-3.947-4.514,11.827,11.827,0,0,1-1.443-5.819" transform="translate(-11.041 -2.818)" fill="#fff"/>
    <path id="Trazado_448" data-name="Trazado 448" d="M221.957,61.611c0-1.241-.051-2.407-.153-3.493s-.151-2.076-.151-2.969h5.618c0,.737.027,1.476.081,2.211s.073,1.494.073,2.27h.156a8.062,8.062,0,0,1,1.708-1.921,12.246,12.246,0,0,1,2.62-1.66,16.422,16.422,0,0,1,3.418-1.161,18.164,18.164,0,0,1,4.1-.438,19.961,19.961,0,0,1,6.039.815,11.865,11.865,0,0,1,4.216,2.27,8.773,8.773,0,0,1,2.469,3.522,12.436,12.436,0,0,1,.8,4.511V82.39h-5.927V66.033a7.32,7.32,0,0,0-1.975-5.411q-1.978-1.978-6.155-1.98a14.678,14.678,0,0,0-4.973.755,8.756,8.756,0,0,0-3.421,2.155,8.865,8.865,0,0,0-1.972,3.318,13.286,13.286,0,0,0-.648,4.251V82.39h-5.924Z" transform="translate(-15.219 -2.818)" fill="#fff"/>
    <path id="Trazado_449" data-name="Trazado 449" d="M288.3,66.326a7.046,7.046,0,0,0-2.966-5.589q-2.81-2.1-7.748-2.1a13.769,13.769,0,0,0-7.971,2.1,8.28,8.28,0,0,0-3.646,5.589Zm5.086,11.117a17.932,17.932,0,0,1-6.985,4.4,28.253,28.253,0,0,1-8.815,1.252,23.315,23.315,0,0,1-7.521-1.137,17.75,17.75,0,0,1-5.658-3.055,13.346,13.346,0,0,1-3.57-4.54,12.828,12.828,0,0,1-1.252-5.589,12.424,12.424,0,0,1,1.367-5.793,13.677,13.677,0,0,1,3.8-4.541,18.083,18.083,0,0,1,5.772-2.936,24.19,24.19,0,0,1,7.291-1.05,23.093,23.093,0,0,1,6.841.962,15.644,15.644,0,0,1,5.355,2.795,12.41,12.41,0,0,1,3.455,4.481,14.324,14.324,0,0,1,1.215,6.024v1.453H265.972a7.771,7.771,0,0,0,1.1,3.348,10.046,10.046,0,0,0,2.469,2.8,11.93,11.93,0,0,0,3.57,1.891,13.808,13.808,0,0,0,4.479.7,17.962,17.962,0,0,0,6.536-1.048,14.651,14.651,0,0,0,4.782-3.087Z" transform="translate(-18.744 -2.818)" fill="#fff"/>
    <path id="Trazado_450" data-name="Trazado 450" d="M354.914,99.225a36.7,36.7,0,1,1,6.564-72.776A40.554,40.554,0,1,0,380.509,88.8a36.574,36.574,0,0,1-25.594,10.425" transform="translate(-23.183)" fill="#fff"/>
    <path id="Trazado_451" data-name="Trazado 451" d="M355.666,31.988a30.788,30.788,0,0,0-30.63,35.452,27.97,27.97,0,1,1,47.051,21.776,30.965,30.965,0,0,0-16.421-57.228" transform="translate(-24.792 -0.731)" fill="#fff"/>
    <path id="Trazado_452" data-name="Trazado 452" d="M369.572,86.044a22.169,22.169,0,0,0-3.89-33.525A20.148,20.148,0,1,1,331.2,66.876a22.307,22.307,0,0,0,38.37,19.168" transform="translate(-25.363 -2.639)" fill="#fff"/>
  </g>
</svg>
